<svg width="97" height="184" viewBox="0 0 97 184" fill="none" xmlns="http://www.w3.org/2000/svg">
<path d="M55.1885 37.1624L65.1631 50.6574L69.6894 44.4547L72.7069 51.0765C67.2542 76.8496 70.1158 104.09 69.4379 130.706L64.8278 121.234L55.1885 37.1624Z" fill="#75BBF5"/>
<path d="M82.5974 44.7062L79.7475 51.6633C86.5178 78.743 85.0665 104.883 80.8372 130.706C69.0544 187.095 28.5359 178.936 22.2469 176.22C17.0303 174.547 12.0024 171.412 7.91365 167.251C4.07901 163.35 3.80644 159.598 3.80644 154.427C8.49332 161.769 12.8746 162.577 15.5413 159.288C18.1868 156.026 15.2063 149.436 8.41657 148.895C-3.04644 147.981 -0.831267 162.415 3.55499 167.168C8.38737 172.404 13.8167 176.542 20.319 179.741C30.3799 184.689 94.3114 194.697 94.8682 122.276C94.9272 114.623 95.7695 106.138 95.342 96.625C94.508 78.0671 96.699 52.5825 96.174 37.0327L87.4591 50.5737L82.5974 44.7062Z" fill="#75BBF5"/>
<path d="M86.9109 45.9572L81.0016 38.2457H70.9851L64.8662 45.5381L55.8975 34.0547H95.5025L86.9109 45.9572Z" fill="#75BBF5"/>
<path d="M75.99 28.9429C83.9824 28.9429 90.4614 22.4638 90.4614 14.4714C90.4614 6.47909 83.9824 0 75.99 0C67.9976 0 61.5186 6.47909 61.5186 14.4714C61.5186 22.4638 67.9976 28.9429 75.99 28.9429Z" fill="#75BBF5"/>
</svg>
